# xmcd CD database file
#
# Track frame offsets:
#	150
#	15481
#	29297
#	41689
#	55672
#	70109
#	81895
#	96592
#	107882
#	120680
#	131343
#	142506
#	152522
#	165180
#	179551
#	195356
#	209975
#	222591
#
# Disc length: 3127 seconds
#
# Revision: 2
# Processed by: cddbd v1.5.2PL0 Copyright (c) Steve Scherf et al.
# Submitted via: CDex 1.51
#
DISCID=f60c3512
DTITLE=Count Basie - Vol.08 - Swingin' The Blues
DYEAR=1900
DGENRE=Jazz
TTITLE0=One O' Clock Boogie
TTITLE1=Meet Me At No Special Place
TTITLE2=I'm Drowning In Your Deep Blue Eyes
TTITLE3=Futile Frustration
TTITLE4=Swingin' The Blues
TTITLE5=St. Louis Boogie
TTITLE6=Basie's Basement
TTITLE7=Backstage At Stuff's
TTITLE8=My Buddy
TTITLE9=Shine On, Harvest Moon
TTITLE10=Lopin'
TTITLE11=I Never Knew
TTITLE12=Sugar
TTITLE13=The Jungle King
TTITLE14=Take A Little Off The Top
TTITLE15=I Ain't Mad At You
TTITLE16=South
TTITLE17=House Rent Boogie
EXTD=
EXTT0=
EXTT1=
EXTT2=
EXTT3=
EXTT4=
EXTT5=
EXTT6=
EXTT7=
EXTT8=
EXTT9=
EXTT10=
EXTT11=
EXTT12=
EXTT13=
EXTT14=
EXTT15=
EXTT16=
EXTT17=
PLAYORDER=
